<svg xmlns="http://www.w3.org/2000/svg" xmlns:xlink="http://www.w3.org/1999/xlink" width="50" zoomAndPan="magnify" viewBox="0 0 37.5 37.499999" height="50" preserveAspectRatio="xMidYMid meet" version="1.0"><defs><clipPath id="id1"><path d="M 15.863281 29.199219 L 22.191406 29.199219 L 22.191406 36.597656 L 15.863281 36.597656 Z M 15.863281 29.199219 " clip-rule="nonzero"/></clipPath><clipPath id="id2"><path d="M 4.800781 0.609375 L 33.285156 0.609375 L 33.285156 33.753906 L 4.800781 33.753906 Z M 4.800781 0.609375 " clip-rule="nonzero"/></clipPath></defs><g clip-path="url(#id1)"><path fill="#008037" d="M 17.085938 32.203125 L 16.328125 32.203125 L 16.328125 31.90625 C 16.328125 30.421875 17.546875 29.207031 19.035156 29.207031 C 20.558594 29.207031 21.746094 30.421875 21.746094 31.90625 L 21.746094 32.203125 L 21.019531 32.203125 L 21.019531 31.90625 C 21.019531 30.820312 20.128906 29.964844 19.035156 29.964844 C 17.980469 29.964844 17.085938 30.820312 17.085938 31.90625 Z M 19.679688 35.375 L 19.714844 35.496094 L 18.328125 35.496094 L 18.367188 35.371094 L 18.5625 34.714844 C 18.402344 34.582031 18.308594 34.382812 18.308594 34.175781 C 18.308594 33.789062 18.636719 33.460938 19.023438 33.460938 C 19.429688 33.460938 19.765625 33.78125 19.765625 34.175781 C 19.765625 34.382812 19.667969 34.582031 19.507812 34.71875 Z M 22.003906 32.359375 L 16.070312 32.359375 C 15.984375 32.359375 15.914062 32.429688 15.914062 32.515625 L 15.914062 36.441406 C 15.914062 36.527344 15.984375 36.597656 16.070312 36.597656 L 22.003906 36.597656 C 22.089844 36.597656 22.160156 36.527344 22.160156 36.441406 L 22.160156 32.515625 C 22.160156 32.429688 22.089844 32.359375 22.003906 32.359375 Z M 19.34375 34.601562 L 19.285156 34.640625 L 19.304688 34.707031 L 19.460938 35.300781 L 18.589844 35.300781 L 18.769531 34.707031 L 18.789062 34.640625 L 18.730469 34.601562 C 18.589844 34.503906 18.503906 34.34375 18.503906 34.175781 C 18.503906 33.894531 18.742188 33.65625 19.023438 33.65625 C 19.324219 33.65625 19.570312 33.886719 19.570312 34.175781 C 19.570312 34.34375 19.484375 34.503906 19.34375 34.601562 Z M 19.667969 34.175781 C 19.667969 33.828125 19.371094 33.558594 19.023438 33.558594 C 18.703125 33.558594 18.40625 33.828125 18.40625 34.175781 C 18.40625 34.386719 18.515625 34.570312 18.675781 34.679688 L 18.460938 35.398438 L 19.585938 35.398438 L 19.398438 34.679688 C 19.558594 34.570312 19.667969 34.386719 19.667969 34.175781 " fill-opacity="1" fill-rule="nonzero"/></g><g clip-path="url(#id2)"><path fill="#ffffff" d="M 33.273438 26.214844 C 33.214844 25.761719 33.175781 25.300781 33.089844 24.859375 C 32.847656 23.609375 32.34375 22.601562 31.679688 21.753906 C 30.960938 20.835938 30.121094 20.199219 29.238281 19.691406 C 28.246094 19.117188 27.21875 18.722656 26.191406 18.324219 C 25.433594 18.03125 24.675781 17.765625 23.945312 17.339844 C 23.824219 17.265625 23.703125 17.1875 23.582031 17.101562 C 23.242188 17.585938 22.863281 18.035156 22.441406 18.433594 C 21.648438 19.179688 20.460938 20.066406 19.433594 20.199219 C 17.679688 20.429688 15.617188 18.566406 14.542969 17.09375 C 14.535156 17.082031 14.527344 17.066406 14.515625 17.054688 C 14.382812 17.15625 14.246094 17.253906 14.105469 17.339844 C 13.34375 17.808594 12.539062 18.0625 11.746094 18.371094 C 10.765625 18.757812 9.785156 19.140625 8.835938 19.6875 C 8.085938 20.117188 7.371094 20.644531 6.722656 21.355469 C 5.683594 22.5 5.007812 23.960938 4.824219 25.863281 C 4.820312 25.929688 4.820312 25.996094 4.816406 26.0625 C 4.808594 26.1875 4.796875 26.308594 4.789062 26.429688 C 4.789062 27.097656 4.789062 27.765625 4.789062 28.433594 C 4.796875 28.605469 4.808594 28.777344 4.816406 28.953125 C 4.816406 29.019531 4.820312 29.085938 4.820312 29.152344 C 4.835938 29.253906 4.847656 29.351562 4.863281 29.453125 C 4.914062 29.765625 5.027344 29.992188 5.230469 30.15625 C 6.277344 31 7.394531 31.59375 8.542969 32.0625 C 9.824219 32.585938 11.125 32.941406 12.441406 33.214844 C 13.457031 33.425781 14.476562 33.574219 15.5 33.6875 L 15.5 32.515625 C 15.5 32.253906 15.671875 32.035156 15.910156 31.96875 L 15.910156 31.90625 C 15.910156 30.191406 17.3125 28.792969 19.035156 28.792969 C 19.878906 28.792969 20.671875 29.121094 21.257812 29.710938 C 21.84375 30.296875 22.164062 31.078125 22.164062 31.90625 L 22.164062 31.96875 C 22.402344 32.035156 22.574219 32.253906 22.574219 32.515625 L 22.574219 33.671875 C 22.761719 33.652344 22.953125 33.628906 23.140625 33.605469 C 24.003906 33.488281 24.867188 33.328125 25.726562 33.164062 C 26.875 32.941406 28.007812 32.613281 29.125 32.179688 C 30.394531 31.6875 31.625 31.058594 32.773438 30.121094 C 32.925781 29.996094 33.035156 29.828125 33.070312 29.582031 C 33.132812 29.097656 33.195312 28.609375 33.242188 28.121094 C 33.273438 27.785156 33.273438 27.441406 33.285156 27.097656 C 33.28125 26.804688 33.277344 26.511719 33.273438 26.214844 Z M 19.035156 30.378906 C 18.191406 30.378906 17.503906 31.066406 17.503906 31.90625 L 17.503906 31.945312 L 20.601562 31.945312 L 20.601562 31.90625 C 20.601562 31.050781 19.914062 30.378906 19.035156 30.378906 Z M 11.988281 9.125 C 11.96875 8.914062 11.96875 8.6875 12.078125 8.503906 C 12.179688 8.332031 12.398438 8.214844 12.585938 8.277344 C 12.402344 7.425781 12.328125 6.566406 12.46875 5.699219 C 12.570312 5.082031 12.722656 4.304688 13.152344 3.828125 C 13.230469 3.738281 14.128906 3.183594 14.128906 3.183594 C 14.089844 2.582031 14.183594 2.34375 14.652344 1.96875 C 15.683594 1.148438 16.878906 0.742188 18.1875 0.636719 C 18.222656 0.636719 18.257812 0.636719 18.292969 0.640625 C 18.339844 0.640625 18.386719 0.640625 18.433594 0.640625 C 18.519531 0.628906 18.601562 0.621094 18.683594 0.609375 C 18.792969 0.609375 18.898438 0.609375 19.003906 0.609375 C 19.085938 0.617188 19.171875 0.628906 19.253906 0.636719 C 19.300781 0.636719 19.347656 0.636719 19.394531 0.636719 C 19.464844 0.640625 19.535156 0.640625 19.605469 0.640625 C 20 0.699219 20.398438 0.738281 20.789062 0.824219 C 22.214844 1.148438 23.441406 1.820312 24.378906 2.960938 C 25.207031 3.964844 25.648438 5.121094 25.679688 6.425781 C 25.691406 7.054688 25.625 7.667969 25.5 8.273438 C 25.503906 8.261719 25.503906 8.25 25.507812 8.238281 C 25.507812 8.273438 25.503906 8.304688 25.503906 8.335938 C 25.621094 8.175781 25.902344 8.246094 26.011719 8.414062 C 26.03125 8.449219 26.050781 8.488281 26.0625 8.527344 C 26.109375 8.675781 26.097656 8.847656 26.082031 9.003906 C 26.007812 9.742188 25.914062 10.535156 25.410156 11.078125 C 25.203125 11.300781 24.941406 11.46875 24.769531 11.71875 C 24.605469 11.953125 24.539062 12.242188 24.464844 12.519531 C 24.015625 14.273438 23.195312 16.007812 21.773438 17.136719 C 21.097656 17.667969 20.289062 18.054688 19.433594 18.132812 C 17.871094 18.273438 16.414062 17.367188 15.429688 16.230469 C 14.511719 15.167969 13.925781 13.742188 13.636719 12.382812 C 13.59375 12.1875 13.554688 11.980469 13.453125 11.808594 C 13.347656 11.628906 13.1875 11.492188 13.039062 11.34375 C 12.445312 10.757812 12.066406 9.957031 11.988281 9.125 " fill-opacity="1" fill-rule="nonzero"/></g></svg>